<svg id="Layer_1" data-name="Layer 1" xmlns="http://www.w3.org/2000/svg" viewBox="0 0 923.51 286.52"><defs><style>.cls-1{fill:#fbfbfb;}.cls-2{fill:#010101;}.cls-3{fill:#fed301;}.cls-4{fill:#ec1c24;}</style></defs><title>Supercheap Logo</title><g id="_Group_" data-name="&lt;Group&gt;"><path id="_Compound_Path_" data-name="&lt;Compound Path&gt;" class="cls-1" d="M155.14,293.28l25.65-121.86c-4.58.94-8.78,2.08-13,2.63-12.9,1.66-25.7,1.39-38.17-2.94a43.43,43.43,0,0,1-11.88-6.52,2.84,2.84,0,0,0-.81.39c-9.22,9.78-20.69,15.54-33.65,18.34a114,114,0,0,1-46.28.74C26.17,182,16.69,177.3,9.53,168.65a41.13,41.13,0,0,1-9.27-23.1c-.82-9.16.38-18.15,2.45-27.06,1-4.15,1.8-8.33,2.7-12.49.18-.83.41-1.64.65-2.61H19.14c-.35-.82-.56-1.41-.86-2A41.78,41.78,0,0,1,13.5,79.76,88.58,88.58,0,0,1,22.19,45C30,28.61,42.61,17.42,59.8,11.63a91.33,91.33,0,0,1,55.36-1.1,42.39,42.39,0,0,1,18.26,10.56,3.57,3.57,0,0,0,3,1.23c.75-.07,1.52,0,2.27,0q60.87,0,121.73,0c11.56,0,23.15-.39,34.22,4.2.2-.88.33-1.53.49-2.16s.36-1.25.59-2H436.25a62.28,62.28,0,0,1,14.66,1.58,41,41,0,0,1,18.7,9.67c10.39-8.41,22.57-12.12,35.63-13.09s25.76-.5,37.93,5.1l1-3.27H799l2.79-12.64c.89,0,1.71-.12,2.52-.12,21.62,0,43.23-.06,64.85,0a72.05,72.05,0,0,1,24.58,3.87c17.07,6.2,27.4,18.24,29.25,36.34,2.21,21.59-3.18,41.42-16.91,58.5C896,120.88,882.38,128,866.63,131.14c-4.17.82-8.42,1.21-12.89,1.83L843.05,183.2H764.93l2.1-10.36H721.54L700.12,274.45c-4.34.18-8.4.39-12.47.52-14.49.48-29,.91-43.47,1.41-20.08.69-40.15,1.45-60.22,2.14-18.28.63-36.56,1.21-54.83,1.83q-24.15.82-48.3,1.68l-50.57,1.74-48,1.67-67,2.3-48.29,1.68-50.29,1.73L168,292.86c-3.31.12-6.63.28-9.94.41C157.16,293.31,156.23,293.28,155.14,293.28Zm536.4-29.07L713,162.28H733.3l6.68-16.7h5.1V162.4H780l-2,10.21h56.61l10.7-50.25c1.06,0,2,.07,2.93,0,5.37-.46,10.82-.54,16.1-1.51,16.34-3,29.5-11.2,38.26-25.55a69.73,69.73,0,0,0,10.24-43.21c-1.21-14-8.62-23.52-21.81-28.48-7.11-2.67-14.52-3.47-22-3.48q-28,0-56,0c-.83,0-1.66.07-2.62.12L794.84,92.75l-.59,0-1.39-59.82H738.69L716,83.3l-.32-.1,10.68-50.3H552.55l-2.62,11.72c-5.64-7.81-13.18-11.31-21.7-12.84a81.16,81.16,0,0,0-33.29.95c-10.51,2.48-19.25,7.75-25.74,16.52a3.72,3.72,0,0,1-.68.54,10,10,0,0,1-.64-1c-3.18-6.73-8.53-11-15.4-13.48a46.81,46.81,0,0,0-15.92-2.51H304.18l-2.51,11a31.45,31.45,0,0,0-17.57-9.57,69,69,0,0,0-12.68-1.4q-67.7-.15-135.4-.06c-.82,0-1.65.08-2.41.12l-1,4.07c-.34-.28-.62-.41-.74-.63C127,27,118.87,22,109,19.68a82.92,82.92,0,0,0-42.44.76c-11.9,3.38-22.07,9.62-29.31,19.86a71.11,71.11,0,0,0-13,43.59,27.28,27.28,0,0,0,8.57,19.55c3.25,3.13,7,5.7,10.62,8.51.7.55,1.46,1,2.19,1.51l-.18.5H14.51L13,120.57c-1.68,7.51-3.07,15.05-2.45,22.8C11.46,154.48,16.24,163.27,26,169a40,40,0,0,0,13,4.77,103.37,103.37,0,0,0,44.26-1.3c14-3.48,25.18-11.12,32.71-23.68a14.47,14.47,0,0,1,1-1.3c1.38,2,2.56,3.91,4,5.62,4.19,5,9.74,7.75,15.93,9.3a77.82,77.82,0,0,0,31,1c10.14-1.57,19.25-5.54,26.66-12.88.32-.32.71-.57,1.53-1.22L168.26,282c3.42,0,6.64.09,9.85,0q23.87-.77,47.74-1.63L292.91,278l48-1.65L408,274l48.31-1.66,66.78-2.33,48.31-1.66q33.39-1.16,66.78-2.32c14.49-.49,29-.93,43.48-1.41C684.85,264.56,688.07,264.37,691.54,264.2Z" transform="translate(0 -6.77)"/><path id="_Compound_Path_2" data-name="&lt;Compound Path&gt;" class="cls-2" d="M691.54,264.2c-3.47.17-6.68.36-9.9.46-14.49.48-29,.92-43.48,1.41q-33.39,1.13-66.78,2.32l-48.31,1.66-66.78,2.33L408,274l-67.06,2.33-48,1.65-67.06,2.33q-23.87.83-47.74,1.63c-3.21.1-6.43,0-9.85,0l27.91-132.67c-.82.65-1.21.9-1.53,1.22-7.42,7.34-16.52,11.31-26.66,12.88a77.82,77.82,0,0,1-31-1c-6.19-1.55-11.73-4.33-15.93-9.3-1.45-1.71-2.62-3.66-4-5.62a14.47,14.47,0,0,0-1,1.3c-7.52,12.56-18.7,20.2-32.71,23.68A103.37,103.37,0,0,1,39,173.79,40,40,0,0,1,26,169c-9.8-5.74-14.58-14.54-15.46-25.65-.61-7.75.77-15.29,2.45-22.8l1.48-6.6H45.39l.18-.5c-.73-.5-1.49-1-2.19-1.51-3.57-2.81-7.36-5.38-10.62-8.51a27.28,27.28,0,0,1-8.57-19.55,71.11,71.11,0,0,1,13-43.59c7.23-10.24,17.41-16.48,29.31-19.86A82.92,82.92,0,0,1,109,19.68c9.9,2.36,18,7.36,22.89,16.68.12.22.4.35.74.63l1-4.07c.76,0,1.59-.12,2.41-.12q67.7,0,135.4.06a69,69,0,0,1,12.68,1.4,31.45,31.45,0,0,1,17.57,9.57l2.51-11H436.56a46.81,46.81,0,0,1,15.92,2.51c6.88,2.46,12.22,6.75,15.4,13.48a10,10,0,0,0,.64,1,3.72,3.72,0,0,0,.68-.54c6.49-8.77,15.23-14,25.74-16.52a81.16,81.16,0,0,1,33.29-.95c8.52,1.53,16.06,5,21.7,12.84l2.62-11.72h173.8l-10.68,50.3.32.1,22.7-50.42h54.17l1.39,59.82.59,0,15.43-72.51c1,0,1.79-.12,2.62-.12q28,0,56,0c7.53,0,14.94.81,22,3.48,13.19,5,20.6,14.51,21.81,28.48a69.73,69.73,0,0,1-10.24,43.21c-8.76,14.34-21.92,22.52-38.26,25.55-5.28,1-10.73,1.05-16.1,1.51-.93.08-1.87,0-2.93,0l-10.7,50.25H777.94l2-10.21H745.09V145.58H740l-6.68,16.7H713Zm-511.79,8.36c10.17.3,501.79-17,504.21-17.74C688.63,236,705.82,152.54,705.49,150c-.73,0-1.48,0-2.22,0q-27,1-54,2-24.58.87-49.16,1.7l-83,2.88-48.59,1.67-66.78,2.31L337,162.82l-83.26,2.89-49.44,1.71c-.82,0-1.64.15-2.45.23ZM124.14,68a4.89,4.89,0,0,0,.49-.93A54.77,54.77,0,0,0,126,48.73c-.86-7.91-4.82-13.87-12-17.41A32.23,32.23,0,0,0,107,28.77a75.27,75.27,0,0,0-38.21.72C55,33.49,45,42,39.2,55.29a77.18,77.18,0,0,0-5.9,23c-1,9.36,2.35,16.9,10,22.48a61.12,61.12,0,0,0,6.11,4.15c5,2.82,10.2,5.42,15.26,8.21,2.82,1.55,5.58,3.21,8.27,5a7.32,7.32,0,0,1,3.3,6.58,21.31,21.31,0,0,1-3.31,11.6,10.28,10.28,0,0,1-9.61,5c-3.31-.18-5.35-2.05-6.19-5.28-.65-2.5-.05-4.89.39-7.3.32-1.72.65-3.43,1-5.29H22c-1.59,7.08-3,14-2,21.2,1.09,7.92,4.91,13.87,12.22,17.27a37.08,37.08,0,0,0,8.58,2.89,93.22,93.22,0,0,0,40.84-1.22C95.22,160.06,105,151.88,110.83,139a74.88,74.88,0,0,0,6-21.23,34.68,34.68,0,0,0-.75-14.1c-2.11-7.38-7-12.55-13.51-16.11-4.81-2.62-9.92-4.69-14.85-7.11a75.55,75.55,0,0,1-9-4.82c-7-4.7-8.18-12.77-3.1-19.58a10.32,10.32,0,0,1,7.12-4.23c3.85-.53,6.74,1.42,7.46,5.25a13.8,13.8,0,0,1,0,4.21C90,63.47,89.46,65.65,89,68Zm713.66,45.13h5.39c6.54,0,13.07.11,19.54-1.21,14.08-2.87,25.36-9.85,32.66-22.46a62,62,0,0,0,8.25-36.32c-.74-9.92-5.9-17-15.39-20.62a52.56,52.56,0,0,0-18.68-3.12c-16.4-.11-32.8,0-49.21,0-.82,0-1.65.1-2.61.16l-28.48,134h37.8ZM444.5,149.83c.16-3.2.08-5.95.47-8.63.57-3.93,1.48-7.81,2.25-11.71,1.16-5.94,2.75-11.81,2.57-17.94a13.15,13.15,0,0,0-10.1-12.84l-2.81-.77c8.32-1.5,14.25-5.73,18.21-12.57a45.08,45.08,0,0,0,6.17-25c-.39-8.79-5-14.44-13.51-16.82a42.16,42.16,0,0,0-11.53-1.35h-48L364.7,152.52l32.51-1.05,8.94-41.84c2.72,0,5.09-.12,7.45,0,3.25.21,4.74,1.84,4.8,5.14a23.55,23.55,0,0,1-.35,4.52c-1.48,8.29-3.06,16.56-4.55,24.85a14.21,14.21,0,0,0,0,6.66ZM141,42.34c-.9,4.16-1.75,8-2.58,11.92q-6.41,30.13-12.81,60.26c-1.51,7.06-2.67,14.16-2,21.41.7,8,4.57,13.71,12.25,16.54A35.44,35.44,0,0,0,141,154a72.78,72.78,0,0,0,25.16.49c14.3-2.1,24.62-9.71,30.71-22.88a70.15,70.15,0,0,0,4.85-14.81q7-32.76,14-65.52c.61-2.85,1.12-5.72,1.68-8.57-2.56-.69-28.69-.7-31.15,0-.48,2.25-1,4.56-1.48,6.87-4.86,22.87-9.68,45.74-14.61,68.59a80.14,80.14,0,0,1-3.34,11.7c-1.4,3.67-4.06,5-7.89,4.71-2.85-.19-4.43-1.61-4.43-4.48a35.9,35.9,0,0,1,.7-7.33q7.7-36.53,15.54-73c.5-2.37.94-4.75,1.45-7.34Zm496.08.22a6.86,6.86,0,0,0-1.26-.35c-9.38,0-18.76,0-28.15-.05-1.65,0-2,.86-2.28,2.23-1.85,9-3.77,18-5.69,26.94-.76,3.58-1.57,7.15-2.38,10.82-5,0-9.63,0-14.56,0l8.41-39.77H560c-7.35,34.67-14.77,69.28-22.13,104.23l31.48-1.17,7.88-36.84h14.59L584.1,145l31.5-1.14Zm146.72-.25c-1.26-.06-2-.13-2.76-.13-11.28,0-22.56.06-33.84-.06-2.1,0-2.94.81-3.73,2.57Q722.63,91.37,701.62,138c-.38.83-.69,1.7-1.2,3l17.15-.61-2.48,12.5h12.06l6.57-16.41h20.54v16.17c3.16.72,30.1.57,32.1-.16ZM333.93,84.39l3.57-16.88h17.87c3,0,6.07,0,9.1,0s5.81.14,8.74-.13l5.26-25H311.55L288,153.05c23.08-.09,45.68.16,68.39-.18,1.77-8.51,3.67-16.65,5.27-25.21h-37l4.07-19H362.1l5.16-24.23Zm208.45-1.15c1-5.68,2.17-11.14,2.88-16.65a32.88,32.88,0,0,0-.15-9.07c-1.33-8.58-6.85-13.55-14.93-15.65a67.35,67.35,0,0,0-34.56.39,34.37,34.37,0,0,0-21.81,17,68.71,68.71,0,0,0-7,18.24q-4.23,18-7.9,36.05a74.88,74.88,0,0,0-1.82,19.19c.3,5.39,1.47,10.5,5.33,14.63a4.62,4.62,0,0,0,4,1.66c5-.28,10-.36,15.05-.53,11.46-.4,22.91-.85,34.37-1.18a6.26,6.26,0,0,0,4.31-1.74,44.3,44.3,0,0,0,8.89-11c4.57-8,6.66-16.86,8.39-25.81a4.69,4.69,0,0,0-.09-1.27c-4.48-.56-27.9-.37-30,.25-.26,1.15-.51,2.35-.81,3.54-1.31,5.13-2.45,10.32-4,15.36a18.93,18.93,0,0,1-3.55,6.05c-1.83,2.23-4.49,2.28-7.06,1.42s-2.72-3.11-2.72-5.16a43.71,43.71,0,0,1,.73-8.47c2.69-13.55,5.44-27.09,8.37-40.59a99.52,99.52,0,0,1,3.85-12.76,13.27,13.27,0,0,1,3.29-4.87,6.33,6.33,0,0,1,6.91-1.17c2.44,1,2.42,3.39,2.61,5.56a6.43,6.43,0,0,1-.16,1.69c-.58,3.16-1.18,6.32-1.77,9.48-.32,1.73-.62,3.47-1,5.4Zm-314-40.88L204.89,152.85h31.28l8.86-41.5c2.26,0,4.24,0,6.22,0a64.56,64.56,0,0,0,15.26-1.2c9.68-2.15,17.93-6.7,23.78-14.86,7.19-10,9.94-21.42,9.15-33.58a18.36,18.36,0,0,0-11.34-16.44,32.65,32.65,0,0,0-13.23-2.93c-15-.13-29.94-.12-44.91-.16C229.58,42.19,229.21,42.27,228.38,42.36Zm419.59,0L626.56,143.08c3.93.53,66.32-1.72,68.85-2.45.82-4.15,2.08-8.29,2.53-12.92H679.5c-3,0-6.07,0-9.1,0s-6,.08-9.26-.08l4.06-19h3.46q13.65,0,27.3,0c2.52,0,2.53,0,3.08-2.58Q700.76,98,702.47,90c.37-1.74.73-3.48,1.16-5.57H670.32l3.64-17h35.64l5.33-25.06ZM278,155.48l9.48-44.62c-11,7.52-22.67,9.82-35,9.66l-7.66,36ZM503.69,97.73h35l1-5.17H504.9ZM124.08,77.39H104.36c6.3,3.81,12,8.14,16.62,14.62Z" transform="translate(0 -6.77)"/><path id="_Compound_Path_3" data-name="&lt;Compound Path&gt;" class="cls-3" d="M179.75,272.56l22.09-104.91c.81-.08,1.63-.2,2.45-.23l49.44-1.71L337,162.82l64.79-2.24,66.78-2.31,48.59-1.67,83-2.88q24.58-.85,49.16-1.7,27-1,54-2c.75,0,1.49,0,2.22,0,.33,2.49-16.86,86-21.53,104.77C681.54,255.53,189.92,272.86,179.75,272.56Zm393.81-36.5c5.48-.3,11-.45,16.45-.94a75.19,75.19,0,0,0,21.53-4.84c14-5.66,22.26-15.85,24.45-30.88,1.43-9.87-2.72-17.27-12-21.08a47.36,47.36,0,0,0-16.35-3.25,169,169,0,0,0-29.78,1.13c-8.12,1.11-16,3.07-23.13,7.3-12.41,7.35-18.42,18.44-18.46,32.72a16.07,16.07,0,0,0,7.34,13.73,28.73,28.73,0,0,0,9.59,4.14C559.9,235.76,566.71,236,573.55,236.06Zm-156.21-53c-.22.7-.45,1.31-.6,1.95-2.5,10.39-5.1,20.77-7.44,31.2-1.37,6.1-4.95,9.61-11,10.72a37.34,37.34,0,0,1-11.3.57c-6.69-.81-8.6-3.48-7-10q3.72-15.45,7.44-30.91c.19-.78.23-1.58.37-2.56l-27.9,1c-.24.69-.4,1-.48,1.4-2.16,9-4.34,18-6.44,27.06a116,116,0,0,0-2.4,11.66c-.82,6.47,2.05,11.23,8,13.93a27.12,27.12,0,0,0,3.46,1.26,55,55,0,0,0,16.86,2.08q11.64-.21,23.26-1.09a60.37,60.37,0,0,0,17.12-3.87c9.57-3.69,15.53-10.46,17.87-20.47,2.54-10.87,5.21-21.72,7.8-32.58a20.8,20.8,0,0,0,.27-2.34ZM308.87,243.26l30-1.07L322,186.51c-1.29,0-2.33,0-3.36,0-9.56.34-19.12.76-28.69,1a5.08,5.08,0,0,0-4.41,2.33q-20.25,26.73-40.64,53.36c-.49.65-.95,1.32-1.63,2.28,1.15,0,1.88,0,2.61,0,7.2-.23,14.39-.45,21.59-.72,1.89-.07,4,.23,5.57-.58s2.32-2.67,3.22-4.21a4.14,4.14,0,0,1,3.91-2.21c8.52-.22,17-.55,25.56-.82a8.66,8.66,0,0,1,1.59.24Zm146.71-61.48L452.15,196l26.13-.81c-3.31,14.4-6.87,28.25-10.08,42.47l28.16-1,10.26-42.54,26.21-1,3.42-14.24Z" transform="translate(0 -6.77)"/><path id="_Path_" data-name="&lt;Path&gt;" class="cls-4" d="M124.14,68H89c.43-2.35.92-4.52,1.2-6.72a13.8,13.8,0,0,0,0-4.21c-.72-3.83-3.61-5.78-7.46-5.25A10.32,10.32,0,0,0,75.64,56c-5.08,6.8-3.91,14.87,3.1,19.58a75.55,75.55,0,0,0,9,4.82c4.93,2.41,10,4.48,14.85,7.11,6.54,3.57,11.4,8.74,13.51,16.11a34.68,34.68,0,0,1,.75,14.1,74.88,74.88,0,0,1-6,21.23c-5.79,12.88-15.61,21.06-29.18,24.52a93.22,93.22,0,0,1-40.84,1.22,37.08,37.08,0,0,1-8.58-2.89c-7.31-3.39-11.12-9.35-12.22-17.27-1-7.2.37-14.12,2-21.2H58.5c-.36,1.86-.7,3.58-1,5.29-.44,2.42-1,4.8-.39,7.3.84,3.23,2.89,5.11,6.19,5.28a10.28,10.28,0,0,0,9.61-5,21.31,21.31,0,0,0,3.31-11.6,7.32,7.32,0,0,0-3.3-6.58c-2.7-1.75-5.46-3.41-8.27-5-5.06-2.79-10.22-5.39-15.26-8.21a61.12,61.12,0,0,1-6.11-4.15c-7.62-5.57-10.93-13.12-10-22.48a77.18,77.18,0,0,1,5.9-23C45,42,55,33.49,68.8,29.5A75.27,75.27,0,0,1,107,28.77a32.23,32.23,0,0,1,6.91,2.54c7.22,3.54,11.19,9.51,12,17.41a54.77,54.77,0,0,1-1.34,18.34A4.89,4.89,0,0,1,124.14,68Z" transform="translate(0 -6.77)"/><path id="_Compound_Path_4" data-name="&lt;Compound Path&gt;" class="cls-4" d="M837.81,113.12l-10.73,50.39h-37.8l28.48-134c1-.06,1.78-.16,2.61-.16,16.4,0,32.8-.08,49.21,0a52.56,52.56,0,0,1,18.68,3.12c9.49,3.64,14.65,10.7,15.39,20.62a62,62,0,0,1-8.25,36.32c-7.3,12.62-18.59,19.59-32.66,22.46-6.46,1.32-13,1.22-19.54,1.21Zm12-56.29c-2,9.63-4.25,19.14-6.05,29.15,2.83-.13,5.19-.16,7.53-.35a10.58,10.58,0,0,0,8.62-5.29,27.71,27.71,0,0,0,4-16.58,6.93,6.93,0,0,0-5.42-6.52C855.64,56.43,852.83,56.67,849.78,56.83Z" transform="translate(0 -6.77)"/><path id="_Compound_Path_5" data-name="&lt;Compound Path&gt;" class="cls-4" d="M444.5,149.83l-31,1a14.21,14.21,0,0,1,0-6.66c1.48-8.29,3.06-16.56,4.55-24.85a23.55,23.55,0,0,0,.35-4.52c-.06-3.3-1.55-4.93-4.8-5.14-2.35-.15-4.72,0-7.45,0l-8.94,41.84-32.51,1.05L388.16,42.18h48a42.16,42.16,0,0,1,11.53,1.35c8.48,2.38,13.12,8,13.51,16.82a45.08,45.08,0,0,1-6.17,25c-4,6.83-9.89,11.07-18.21,12.57l2.81.77a13.15,13.15,0,0,1,10.1,12.84c.18,6.14-1.41,12-2.57,17.94-.76,3.9-1.67,7.78-2.25,11.71C444.58,143.89,444.66,146.63,444.5,149.83ZM415.72,64.49,410.6,88.61c2.28,0,4.34.13,6.37,0a10.34,10.34,0,0,0,7.94-4.86,21.12,21.12,0,0,0,3.63-12.58c-.07-3.2-1.61-5.24-4.72-5.86A79.52,79.52,0,0,0,415.72,64.49Z" transform="translate(0 -6.77)"/><path id="_Path_2" data-name="&lt;Path&gt;" class="cls-4" d="M141,42.34h31.18c-.51,2.59-.95,5-1.45,7.34q-7.78,36.52-15.54,73a35.9,35.9,0,0,0-.7,7.33c0,2.87,1.57,4.29,4.43,4.48,3.84.26,6.49-1,7.89-4.71a80.14,80.14,0,0,0,3.34-11.7c4.93-22.85,9.75-45.73,14.61-68.59.49-2.31,1-4.62,1.48-6.87,2.46-.65,28.59-.64,31.15,0-.55,2.84-1.07,5.71-1.68,8.57q-7,32.77-14,65.52a70.15,70.15,0,0,1-4.85,14.81c-6.09,13.18-16.4,20.79-30.71,22.88A72.78,72.78,0,0,1,141,154a35.44,35.44,0,0,1-5.17-1.52c-7.68-2.83-11.55-8.55-12.25-16.54-.64-7.25.53-14.35,2-21.41q6.42-30.13,12.81-60.26C139.3,50.38,140.15,46.5,141,42.34Z" transform="translate(0 -6.77)"/><path id="_Path_3" data-name="&lt;Path&gt;" class="cls-4" d="M637.13,42.57,615.6,143.85,584.1,145l7.68-36.39H577.19l-7.88,36.84-31.48,1.17c7.36-35,14.78-69.56,22.13-104.23h31.26l-8.41,39.77c4.93,0,9.6,0,14.56,0,.81-3.67,1.62-7.24,2.38-10.82,1.92-9,3.84-18,5.69-26.94.28-1.37.63-2.24,2.28-2.23,9.38.06,18.76,0,28.15.05A6.86,6.86,0,0,1,637.13,42.57Z" transform="translate(0 -6.77)"/><path id="_Compound_Path_6" data-name="&lt;Compound Path&gt;" class="cls-4" d="M783.85,42.32l2.51,110.14c-2,.73-28.94.88-32.1.16V136.45H733.72l-6.57,16.41H715.09l2.48-12.5-17.15.61c.51-1.27.83-2.13,1.2-3q21-46.65,41.91-93.31c.79-1.77,1.62-2.6,3.73-2.57,11.28.12,22.56.06,33.84.06C781.84,42.19,782.59,42.26,783.85,42.32ZM759,67.65l-.44,0-16.24,44H756.1Z" transform="translate(0 -6.77)"/><path id="_Path_4" data-name="&lt;Path&gt;" class="cls-4" d="M333.93,84.39h33.32l-5.16,24.23H328.78l-4.07,19h37c-1.6,8.57-3.51,16.7-5.27,25.21-22.71.34-45.32.09-68.39.18L311.55,42.39h66.94l-5.26,25c-2.93.27-5.84.1-8.74.13s-6.07,0-9.1,0H337.51Z" transform="translate(0 -6.77)"/><path id="_Path_5" data-name="&lt;Path&gt;" class="cls-4" d="M542.38,83.23H512c.34-1.93.64-3.67,1-5.4.59-3.16,1.19-6.32,1.77-9.48a6.43,6.43,0,0,0,.16-1.69c-.19-2.17-.17-4.6-2.61-5.56a6.33,6.33,0,0,0-6.91,1.17,13.27,13.27,0,0,0-3.29,4.87,99.52,99.52,0,0,0-3.85,12.76c-2.93,13.5-5.68,27-8.37,40.59a43.71,43.71,0,0,0-.73,8.47c0,2.05.28,4.34,2.72,5.16s5.23.82,7.06-1.42a18.93,18.93,0,0,0,3.55-6.05c1.58-5,2.72-10.23,4-15.36.3-1.19.55-2.39.81-3.54,2.06-.62,25.49-.81,30-.25a4.69,4.69,0,0,1,.09,1.27c-1.73,8.95-3.82,17.77-8.39,25.81a44.3,44.3,0,0,1-8.89,11,6.26,6.26,0,0,1-4.31,1.74c-11.46.33-22.92.78-34.37,1.18-5,.18-10,.25-15.05.53a4.62,4.62,0,0,1-4-1.66c-3.85-4.14-5-9.24-5.33-14.63a74.88,74.88,0,0,1,1.82-19.19q3.69-18.08,7.9-36.05a68.71,68.71,0,0,1,7-18.24,34.37,34.37,0,0,1,21.81-17,67.35,67.35,0,0,1,34.56-.39c8.08,2.09,13.6,7.06,14.93,15.65a32.88,32.88,0,0,1,.15,9.07C544.56,72.1,543.39,77.55,542.38,83.23Z" transform="translate(0 -6.77)"/><path id="_Compound_Path_7" data-name="&lt;Compound Path&gt;" class="cls-4" d="M228.38,42.36c.82-.09,1.2-.17,1.57-.17,15,0,29.94,0,44.91.16a32.65,32.65,0,0,1,13.23,2.93,18.36,18.36,0,0,1,11.34,16.44c.79,12.16-2,23.56-9.15,33.58-5.85,8.16-14.1,12.71-23.78,14.86a64.56,64.56,0,0,1-15.26,1.2c-2,0-4,0-6.22,0l-8.86,41.5H204.89Zm21.41,46.56c2.62-.16,4.77-.2,6.9-.44a8.49,8.49,0,0,0,6.63-4.39,23.13,23.13,0,0,0,3.16-13.63,5.61,5.61,0,0,0-4.18-5.18,17.48,17.48,0,0,0-7.42-.41Z" transform="translate(0 -6.77)"/><path id="_Path_6" data-name="&lt;Path&gt;" class="cls-4" d="M648,42.36h67l-5.33,25.06H674l-3.64,17h33.31c-.44,2.09-.79,3.83-1.16,5.57Q700.76,98,699,106.09c-.55,2.55-.56,2.57-3.08,2.58q-13.65,0-27.3,0H665.2l-4.06,19c3.29.15,6.28.06,9.26.08s6.07,0,9.1,0h18.45c-.46,4.63-1.71,8.77-2.53,12.92-2.53.73-64.92,3-68.85,2.45Z" transform="translate(0 -6.77)"/><path id="_Compound_Path_8" data-name="&lt;Compound Path&gt;" class="cls-1" d="M278,155.48l-33.23,1.09,7.66-36c12.37.16,24.09-2.15,35-9.66ZM261,131l-3,14.34a5.86,5.86,0,0,0,1,.24h10.38L272.88,129Z" transform="translate(0 -6.77)"/><path id="_Path_7" data-name="&lt;Path&gt;" class="cls-1" d="M503.69,97.73l1.2-5.17h34.83l-1,5.17Z" transform="translate(0 -6.77)"/><path id="_Path_8" data-name="&lt;Path&gt;" class="cls-1" d="M124.08,77.39,121,92c-4.63-6.48-10.32-10.81-16.62-14.62Z" transform="translate(0 -6.77)"/><path id="_Compound_Path_9" data-name="&lt;Compound Path&gt;" class="cls-2" d="M573.55,236.06c-6.85,0-13.65-.3-20.33-2a28.73,28.73,0,0,1-9.59-4.14,16.07,16.07,0,0,1-7.34-13.73c0-14.28,6.06-25.37,18.46-32.72,7.13-4.22,15-6.18,23.13-7.3a169,169,0,0,1,29.78-1.13A47.36,47.36,0,0,1,624,178.31c9.23,3.81,13.38,11.21,12,21.08-2.18,15-10.42,25.23-24.45,30.88A75.19,75.19,0,0,1,590,235.12C584.54,235.61,579,235.76,573.55,236.06Zm7.17-14.32c2.44-.25,4.43-.37,6.39-.67,13.32-2.06,18-11.49,18.56-20.36.38-6.22-2.57-9.77-8.66-11a33.33,33.33,0,0,0-12.42.1c-10.6,1.87-17.39,9.64-17.89,20.4-.26,5.71,2.19,9.18,7.73,10.58A58.31,58.31,0,0,0,580.73,221.74Z" transform="translate(0 -6.77)"/><path id="_Path_9" data-name="&lt;Path&gt;" class="cls-2" d="M417.35,183.1l27.81-.94a20.8,20.8,0,0,1-.27,2.34c-2.59,10.86-5.26,21.7-7.8,32.58-2.34,10-8.3,16.79-17.87,20.47a60.37,60.37,0,0,1-17.12,3.87q-11.6.89-23.26,1.09A55,55,0,0,1,362,240.44a27.12,27.12,0,0,1-3.46-1.26c-5.93-2.7-8.8-7.46-8-13.93a116,116,0,0,1,2.4-11.66c2.1-9,4.29-18,6.44-27.06.09-.36.24-.71.48-1.4l27.9-1c-.14,1-.18,1.78-.37,2.56q-3.71,15.46-7.44,30.91c-1.56,6.48.35,9.15,7,10a37.34,37.34,0,0,0,11.3-.57c6.06-1.11,9.63-4.63,11-10.72,2.34-10.43,4.94-20.8,7.44-31.2C416.9,184.42,417.13,183.8,417.35,183.1Z" transform="translate(0 -6.77)"/><path id="_Compound_Path_10" data-name="&lt;Compound Path&gt;" class="cls-2" d="M308.87,243.26l-1.5-6.11a8.66,8.66,0,0,0-1.59-.24c-8.52.27-17,.6-25.56.82a4.14,4.14,0,0,0-3.91,2.21c-.9,1.54-1.79,3.47-3.22,4.21s-3.69.51-5.57.58c-7.19.27-14.39.49-21.59.72-.73,0-1.46,0-2.61,0,.68-1,1.14-1.63,1.63-2.28q20.33-26.67,40.64-53.36a5.08,5.08,0,0,1,4.41-2.33c9.56-.22,19.12-.64,28.69-1,1,0,2.07,0,3.36,0l16.82,55.68ZM300.59,204c-4.63,6.89-8.88,13.15-13.25,19.89l17.13-.68Z" transform="translate(0 -6.77)"/><path id="_Path_10" data-name="&lt;Path&gt;" class="cls-2" d="M455.57,181.78l80.67-2.83-3.42,14.24-26.21,1-10.26,42.54-28.16,1c3.21-14.22,6.77-28.08,10.08-42.47l-26.13.81Z" transform="translate(0 -6.77)"/><path id="_Path_11" data-name="&lt;Path&gt;" class="cls-2" d="M849.78,56.83c3-.16,5.86-.4,8.65.42a6.93,6.93,0,0,1,5.42,6.52,27.71,27.71,0,0,1-4,16.58,10.58,10.58,0,0,1-8.62,5.29c-2.34.19-4.7.22-7.53.35C845.53,76,847.8,66.47,849.78,56.83Z" transform="translate(0 -6.77)"/><path id="_Path_12" data-name="&lt;Path&gt;" class="cls-2" d="M415.72,64.49a79.52,79.52,0,0,1,8.09.79c3.11.62,4.65,2.66,4.72,5.86a21.12,21.12,0,0,1-3.63,12.58A10.34,10.34,0,0,1,417,88.58c-2,.15-4.08,0-6.37,0Z" transform="translate(0 -6.77)"/><path id="_Path_13" data-name="&lt;Path&gt;" class="cls-2" d="M759,67.65l-2.92,43.94H742.34l16.24-44Z" transform="translate(0 -6.77)"/><path id="_Path_14" data-name="&lt;Path&gt;" class="cls-2" d="M249.79,88.92l5.09-24.05a17.48,17.48,0,0,1,7.42.41,5.61,5.61,0,0,1,4.18,5.18,23.13,23.13,0,0,1-3.16,13.63,8.49,8.49,0,0,1-6.63,4.39C254.56,88.72,252.41,88.76,249.79,88.92Z" transform="translate(0 -6.77)"/><path id="_Path_15" data-name="&lt;Path&gt;" class="cls-3" d="M580.73,221.74a58.31,58.31,0,0,1-6.28-.94c-5.54-1.4-8-4.87-7.73-10.58.5-10.76,7.29-18.53,17.89-20.4a33.33,33.33,0,0,1,12.42-.1c6.09,1.22,9,4.77,8.66,11-.55,8.87-5.24,18.3-18.56,20.36C585.16,221.37,583.17,221.49,580.73,221.74Z" transform="translate(0 -6.77)"/><path id="_Path_16" data-name="&lt;Path&gt;" class="cls-3" d="M300.59,204l3.88,19.22-17.13.68C291.71,217.14,296,210.87,300.59,204Z" transform="translate(0 -6.77)"/></g></svg>