<?xml version="1.0" standalone="no"?>
<!DOCTYPE svg PUBLIC "-//W3C//DTD SVG 20010904//EN"
 "http://www.w3.org/TR/2001/REC-SVG-20010904/DTD/svg10.dtd">
<svg version="1.0" xmlns="http://www.w3.org/2000/svg"
 width="1384.000000pt" height="580.000000pt" viewBox="0 0 1384.000000 580.000000"
 preserveAspectRatio="xMidYMid meet">
<metadata>
Created by potrace 1.14, written by Peter Selinger 2001-2017
</metadata>
<g transform="translate(0.000000,580.000000) scale(0.100000,-0.100000)"
fill="#000000" stroke="none">
<path d="M1880 5695 c-267 -31 -547 -111 -805 -230 -254 -117 -520 -340 -666
-558 -130 -194 -195 -365 -235 -617 -23 -148 -15 -460 15 -614 111 -553 465
-989 1062 -1306 152 -81 252 -126 514 -230 368 -147 566 -251 730 -384 108
-87 174 -165 223 -266 37 -75 37 -75 37 -205 0 -191 -36 -286 -149 -403 -82
-85 -147 -119 -273 -143 -95 -19 -133 -21 -318 -16 -174 5 -229 10 -320 31
-342 77 -545 257 -631 561 -26 95 -28 111 -28 310 -1 215 5 275 50 519 13 71
23 130 22 131 -8 6 -881 -184 -887 -193 -3 -5 -22 -13 -41 -16 -70 -15 -66 -8
-79 -129 -6 -62 -11 -181 -11 -263 0 -812 416 -1313 1240 -1493 388 -85 961
-96 1325 -26 272 52 619 185 818 312 370 237 607 555 706 948 67 264 69 610 6
855 -131 512 -528 943 -1178 1280 -201 104 -353 170 -659 284 -280 104 -406
157 -518 219 -220 119 -350 240 -419 387 -23 49 -26 67 -26 170 0 87 5 128 19
170 53 154 178 261 347 297 130 28 525 25 664 -6 350 -76 548 -239 631 -519
37 -126 44 -359 16 -562 -11 -80 -19 -146 -18 -148 2 -1 197 30 435 69 293 49
431 76 431 84 0 8 22 15 55 20 l55 6 -5 57 c-2 31 -7 103 -10 158 -10 193 -62
431 -130 594 -214 516 -656 800 -1354 870 -136 13 -509 11 -641 -5z"/>
<path d="M6880 5703 c-253 -25 -454 -72 -710 -165 -364 -133 -621 -298 -887
-569 -434 -444 -684 -1008 -764 -1724 -24 -216 -26 -645 -4 -880 51 -545 181
-979 393 -1318 389 -619 1049 -927 1987 -927 416 0 673 43 1020 168 333 120
550 254 765 472 236 240 373 522 425 877 16 108 20 364 9 559 l-7 110 -396 97
c-218 54 -399 97 -403 97 -4 0 -5 -14 -1 -32 7 -35 16 -33 -88 -12 -28 6 -30
5 -25 -17 23 -107 41 -358 40 -564 0 -217 -2 -237 -28 -345 -77 -314 -260
-583 -492 -723 -99 -59 -177 -77 -339 -77 -229 0 -395 64 -550 211 -234 222
-377 611 -441 1199 -22 198 -30 865 -15 1155 33 620 116 1051 262 1363 88 188
202 330 324 402 l59 35 161 -1 c145 0 169 -3 255 -28 295 -88 470 -306 543
-677 20 -105 22 -143 22 -457 0 -188 1 -342 1 -342 7 0 204 77 527 207 l387
155 0 72 c-1 213 -49 510 -115 703 -77 223 -176 386 -329 539 -118 117 -217
186 -370 259 -276 132 -564 186 -966 183 -118 0 -231 -3 -250 -5z"/>
<path d="M10693 5610 c-4 -15 -15 -20 -56 -22 l-50 -3 -758 -2605 c-417 -1433
-769 -2642 -783 -2687 l-24 -83 368 0 c359 0 368 0 373 20 4 17 14 20 54 20
l50 0 159 543 160 542 678 0 678 0 148 -535 c80 -294 150 -547 153 -562 l7
-28 834 0 c822 0 834 0 829 19 -5 18 1 20 55 23 l59 3 -736 2687 -736 2688
-728 0 c-714 0 -729 0 -734 -20z m436 -2577 c129 -516 236 -946 239 -955 4
-17 -25 -18 -498 -18 -397 0 -501 3 -498 13 3 6 119 436 259 955 139 518 256
942 259 942 3 0 110 -422 239 -937z"/>
</g>
</svg>
